<svg xmlns="http://www.w3.org/2000/svg" viewBox="0 0 64 64" width="64" height="64" role="img" aria-label="NPM Manager app icon">
  <defs>
    <linearGradient id="npm-bg" x1="0" y1="0" x2="1" y2="1">
      <stop offset="0%" stop-color="#9333EA"/>
      <stop offset="100%" stop-color="#D946EF"/>
    </linearGradient>
  </defs>
  <rect x="2" y="2" width="60" height="60" rx="16" fill="url(#npm-bg)"/>
  <!-- package cube -->
  <g transform="translate(7.4 7.8) scale(2.05)" stroke="#FFFFFF" stroke-width="1.4" stroke-linecap="round" stroke-linejoin="round" fill="none">
    <path d="M21 16V8a2 2 0 0 0-1-1.73l-7-4a2 2 0 0 0-2 0l-7 4A2 2 0 0 0 3 8v8a2 2 0 0 0 1 1.73l7 4a2 2 0 0 0 2 0l7-4A2 2 0 0 0 21 16z"/>
    <path d="M3.27 6.96 12 12.01l8.73-5.05"/>
    <path d="M12 22.08V12"/>
  </g>
</svg>
